{
  "asset": {
    "generator": "Khronos glTF Blender I/O v3.4.49",
    "version": "2.0"
  },
  "extensionsUsed": [
    "KHR_materials_specular",
    "KHR_materials_ior",
    "KHR_texture_transform"
  ],
  "extensionsRequired": ["KHR_texture_transform"],
  "scene": 0,
  "scenes": [
    {
      "name": "Scene",
      "nodes": [0, 1, 2, 3, 4, 5, 6, 7]
    }
  ],
  "nodes": [
    {
      "mesh": 0,
      "name": "Table_1",
      "rotation": [0, -0.7071067094802856, 0, 0.7071068286895752],
      "translation": [
        0.0004568248987197876, 0.001132369041442871, 0.08912815153598785
      ]
    },
    {
      "mesh": 1,
      "name": "Sides and back",
      "rotation": [0, -0.7071067094802856, 0, 0.7071068286895752],
      "translation": [
        0.0004568248987197876, -0.0017037391662597656, 0.08912815153598785
      ]
    },
    {
      "mesh": 2,
      "name": "Table legs",
      "rotation": [0, -0.7071067094802856, 0, 0.7071068286895752],
      "translation": [
        0.0004568248987197876, 0.001132369041442871, 0.08912815153598785
      ]
    },
    {
      "mesh": 3,
      "name": "Board_1",
      "rotation": [0, -0.7071067094802856, 0, 0.7071068286895752],
      "scale": [1, 0.5549332499504089, 1],
      "translation": [
        0.0004568248987197876, 0.12312746047973633, 0.08912815153598785
      ]
    },
    {
      "mesh": 4,
      "name": "Wall",
      "translation": [
        0.0004568248987197876, 0.2503994107246399, 1.000095009803772
      ]
    },
    {
      "mesh": 5,
      "name": "Flor",
      "rotation": [0, -0.7071067094802856, 0, 0.7071068286895752],
      "scale": [1, 0.5549332499504089, 1],
      "translation": [
        0.0004568248987197876, 0.2509884834289551, 1.000095009803772
      ]
    },
    {
      "mesh": 6,
      "name": "Wall2",
      "translation": [
        -0.007895990274846554, 2.0374274253845215, 0.0005449660820886493
      ]
    },
    {
      "mesh": 7,
      "name": "Board_2",
      "rotation": [0, -0.7071067094802856, 0, 0.7071068286895752],
      "scale": [1, 0.5549332499504089, 1],
      "translation": [
        0.0004568248987197876, 0.31357717514038086, 0.08912815153598785
      ]
    }
  ],
  "materials": [
    {
      "doubleSided": true,
      "extensions": {
        "KHR_materials_specular": {
          "specularColorFactor": [
            0.8084173749842914, 0.8084173749842914, 0.8084173749842914
          ]
        },
        "KHR_materials_ior": {
          "ior": 1.4500000476837158
        }
      },
      "name": "Tauari wood.001",
      "pbrMetallicRoughness": {
        "baseColorTexture": {
          "index": 0,
          "texCoord": 1
        },
        "metallicFactor": 0,
        "roughnessFactor": 0.5
      }
    },
    {
      "doubleSided": true,
      "extensions": {
        "KHR_materials_specular": {
          "specularColorFactor": [
            0.8084173749842914, 0.8084173749842914, 0.8084173749842914
          ]
        },
        "KHR_materials_ior": {
          "ior": 1.4500000476837158
        }
      },
      "name": "Tauari wood.003",
      "pbrMetallicRoughness": {
        "baseColorTexture": {
          "index": 1
        },
        "metallicFactor": 0,
        "roughnessFactor": 0.5
      }
    },
    {
      "doubleSided": true,
      "extensions": {
        "KHR_materials_specular": {
          "specularColorFactor": [
            0.8084173749842914, 0.8084173749842914, 0.8084173749842914
          ]
        },
        "KHR_materials_ior": {
          "ior": 1.4500000476837158
        }
      },
      "name": "Tauari wood.002",
      "pbrMetallicRoughness": {
        "baseColorTexture": {
          "index": 2
        },
        "metallicFactor": 0,
        "roughnessFactor": 0.5
      }
    },
    {
      "doubleSided": true,
      "extensions": {
        "KHR_materials_specular": {
          "specularColorFactor": [
            0.8084173749842914, 0.8084173749842914, 0.8084173749842914
          ]
        },
        "KHR_materials_ior": {
          "ior": 1.4500000476837158
        }
      },
      "name": "Tauari wood",
      "pbrMetallicRoughness": {
        "baseColorTexture": {
          "index": 3
        },
        "metallicFactor": 0,
        "roughnessFactor": 0.5
      }
    },
    {
      "doubleSided": true,
      "name": "Decorative Wallpaper",
      "pbrMetallicRoughness": {
        "baseColorFactor": [
          0.800000011920929, 0.800000011920929, 0.800000011920929, 1
        ],
        "metallicFactor": 0,
        "roughnessFactor": 0.5
      }
    },
    {
      "doubleSided": true,
      "extensions": {
        "KHR_materials_specular": {
          "specularColorFactor": [
            1.3904778199547743, 1.3904778199547743, 1.3904778199547743
          ]
        },
        "KHR_materials_ior": {
          "ior": 1.4500000476837158
        }
      },
      "name": "Parquet 2",
      "pbrMetallicRoughness": {
        "baseColorTexture": {
          "extensions": {
            "KHR_texture_transform": {
              "offset": [-3.8999998569488485, 1.0000001704744148],
              "rotation": 1.5707963705062866,
              "scale": [3.8999998569488525, 3.8999998569488525]
            }
          },
          "index": 4,
          "texCoord": 1
        },
        "metallicFactor": 0.5409091114997864,
        "roughnessFactor": 0.5
      }
    },
    {
      "doubleSided": true,
      "name": "Material.001",
      "pbrMetallicRoughness": {
        "baseColorTexture": {
          "extensions": {
            "KHR_texture_transform": {
              "offset": [-0.999999999999999, 1.00000004371139],
              "rotation": 1.5707963705062866
            }
          },
          "index": 5
        },
        "metallicFactor": 0,
        "roughnessFactor": 0.5
      }
    },
    {
      "doubleSided": true,
      "extensions": {
        "KHR_materials_specular": {
          "specularColorFactor": [
            0.8084173749842914, 0.8084173749842914, 0.8084173749842914
          ]
        },
        "KHR_materials_ior": {
          "ior": 1.4500000476837158
        }
      },
      "name": "Tauari wood.004",
      "pbrMetallicRoughness": {
        "baseColorTexture": {
          "index": 6
        },
        "metallicFactor": 0,
        "roughnessFactor": 0.5
      }
    }
  ],
  "meshes": [
    {
      "name": "Cube.001",
      "primitives": [
        {
          "attributes": {
            "POSITION": 0,
            "TEXCOORD_0": 1,
            "TEXCOORD_1": 2,
            "NORMAL": 3
          },
          "indices": 4,
          "material": 0
        }
      ]
    },
    {
      "name": "Cube.002",
      "primitives": [
        {
          "attributes": {
            "POSITION": 5,
            "TEXCOORD_0": 6,
            "NORMAL": 7
          },
          "indices": 8,
          "material": 1
        }
      ]
    },
    {
      "name": "Cube.003",
      "primitives": [
        {
          "attributes": {
            "POSITION": 9,
            "TEXCOORD_0": 10,
            "NORMAL": 11
          },
          "indices": 12,
          "material": 2
        }
      ]
    },
    {
      "name": "Cube.004",
      "primitives": [
        {
          "attributes": {
            "POSITION": 13,
            "TEXCOORD_0": 14,
            "NORMAL": 15
          },
          "indices": 16,
          "material": 3
        }
      ]
    },
    {
      "name": "Cube.005",
      "primitives": [
        {
          "attributes": {
            "POSITION": 17,
            "TEXCOORD_0": 18,
            "TEXCOORD_1": 19,
            "NORMAL": 20
          },
          "indices": 21,
          "material": 4
        }
      ]
    },
    {
      "name": "Cube.006",
      "primitives": [
        {
          "attributes": {
            "POSITION": 22,
            "TEXCOORD_0": 23,
            "TEXCOORD_1": 24,
            "NORMAL": 25
          },
          "indices": 26,
          "material": 5
        }
      ]
    },
    {
      "name": "Plane",
      "primitives": [
        {
          "attributes": {
            "POSITION": 27,
            "TEXCOORD_0": 28,
            "NORMAL": 29
          },
          "indices": 30,
          "material": 6
        }
      ]
    },
    {
      "name": "Cube.007",
      "primitives": [
        {
          "attributes": {
            "POSITION": 31,
            "TEXCOORD_0": 32,
            "NORMAL": 33
          },
          "indices": 16,
          "material": 7
        }
      ]
    }
  ],
  "textures": [
    {
      "sampler": 0,
      "source": 0
    },
    {
      "sampler": 0,
      "source": 0
    },
    {
      "sampler": 0,
      "source": 0
    },
    {
      "sampler": 0,
      "source": 0
    },
    {
      "sampler": 0,
      "source": 1
    },
    {
      "sampler": 0,
      "source": 2
    },
    {
      "sampler": 0,
      "source": 0
    }
  ],
  "images": [
    {
      "bufferView": 5,
      "mimeType": "image/jpeg",
      "name": "ultra_di_wood_texture_solid_texture_clean_light_clear_bright_7f"
    },
    {
      "bufferView": 28,
      "mimeType": "image/jpeg",
      "name": "ParquetFlooring09_4K_BaseColor"
    },
    {
      "bufferView": 33,
      "mimeType": "image/jpeg",
      "name": "wall"
    }
  ],
  "accessors": [
    {
      "bufferView": 0,
      "componentType": 5126,
      "count": 101,
      "max": [1, 0.5549332499504089, 1],
      "min": [-0.054853975772857666, 0.5095213055610657, -1],
      "type": "VEC3"
    },
    {
      "bufferView": 1,
      "componentType": 5126,
      "count": 101,
      "type": "VEC2"
    },
    {
      "bufferView": 2,
      "componentType": 5126,
      "count": 101,
      "type": "VEC2"
    },
    {
      "bufferView": 3,
      "componentType": 5126,
      "count": 101,
      "type": "VEC3"
    },
    {
      "bufferView": 4,
      "componentType": 5123,
      "count": 324,
      "type": "SCALAR"
    },
    {
      "bufferView": 6,
      "componentType": 5126,
      "count": 212,
      "max": [0.1722518801689148, 1.1494396924972534, 0.9687772393226624],
      "min": [-0.05449725687503815, 0.5549332499504089, -0.9687772393226624],
      "type": "VEC3"
    },
    {
      "bufferView": 7,
      "componentType": 5126,
      "count": 212,
      "type": "VEC2"
    },
    {
      "bufferView": 8,
      "componentType": 5126,
      "count": 212,
      "type": "VEC3"
    },
    {
      "bufferView": 9,
      "componentType": 5123,
      "count": 612,
      "type": "SCALAR"
    },
    {
      "bufferView": 10,
      "componentType": 5126,
      "count": 104,
      "max": [0.7753958702087402, 0.5095213055610657, 0.9691389203071594],
      "min": [
        -0.054853975772857666, -0.002331238705664873, -0.9691389203071594
      ],
      "type": "VEC3"
    },
    {
      "bufferView": 11,
      "componentType": 5126,
      "count": 104,
      "type": "VEC2"
    },
    {
      "bufferView": 12,
      "componentType": 5126,
      "count": 104,
      "type": "VEC3"
    },
    {
      "bufferView": 13,
      "componentType": 5123,
      "count": 264,
      "type": "SCALAR"
    },
    {
      "bufferView": 14,
      "componentType": 5126,
      "count": 80,
      "max": [0.1722518801689148, 1.4065049886703491, 0.9401136040687561],
      "min": [-0.03393741697072983, 1.3509427309036255, -0.9401330351829529],
      "type": "VEC3"
    },
    {
      "bufferView": 15,
      "componentType": 5126,
      "count": 80,
      "type": "VEC2"
    },
    {
      "bufferView": 16,
      "componentType": 5126,
      "count": 80,
      "type": "VEC3"
    },
    {
      "bufferView": 17,
      "componentType": 5123,
      "count": 204,
      "type": "SCALAR"
    },
    {
      "bufferView": 18,
      "componentType": 5126,
      "count": 128,
      "max": [5.294640064239502, -0.19912922382354736, -0.9793649315834045],
      "min": [-5.294640064239502, -0.2509884536266327, -0.999579906463623],
      "type": "VEC3"
    },
    {
      "bufferView": 19,
      "componentType": 5126,
      "count": 128,
      "type": "VEC2"
    },
    {
      "bufferView": 20,
      "componentType": 5126,
      "count": 128,
      "type": "VEC2"
    },
    {
      "bufferView": 21,
      "componentType": 5126,
      "count": 128,
      "type": "VEC3"
    },
    {
      "bufferView": 22,
      "componentType": 5123,
      "count": 522,
      "type": "SCALAR"
    },
    {
      "bufferView": 23,
      "componentType": 5126,
      "count": 55,
      "max": [3.086857318878174, -0.45228585600852966, 5.294640064239502],
      "min": [-0.9995794892311096, -0.45228585600852966, -5.294640064239502],
      "type": "VEC3"
    },
    {
      "bufferView": 24,
      "componentType": 5126,
      "count": 55,
      "type": "VEC2"
    },
    {
      "bufferView": 25,
      "componentType": 5126,
      "count": 55,
      "type": "VEC2"
    },
    {
      "bufferView": 26,
      "componentType": 5126,
      "count": 55,
      "type": "VEC3"
    },
    {
      "bufferView": 27,
      "componentType": 5123,
      "count": 240,
      "type": "SCALAR"
    },
    {
      "bufferView": 29,
      "componentType": 5126,
      "count": 4,
      "max": [5.300472259521484, 1.9662989377975464, 1.4845144846731273e-7],
      "min": [-5.289646625518799, -2.0380196571350098, -1.4845144846731273e-7],
      "type": "VEC3"
    },
    {
      "bufferView": 30,
      "componentType": 5126,
      "count": 4,
      "type": "VEC2"
    },
    {
      "bufferView": 31,
      "componentType": 5126,
      "count": 4,
      "type": "VEC3"
    },
    {
      "bufferView": 32,
      "componentType": 5123,
      "count": 6,
      "type": "SCALAR"
    },
    {
      "bufferView": 34,
      "componentType": 5126,
      "count": 80,
      "max": [0.1722518801689148, 1.4065049886703491, 0.9401136040687561],
      "min": [-0.03393741697072983, 1.3509427309036255, -0.9401330351829529],
      "type": "VEC3"
    },
    {
      "bufferView": 35,
      "componentType": 5126,
      "count": 80,
      "type": "VEC2"
    },
    {
      "bufferView": 36,
      "componentType": 5126,
      "count": 80,
      "type": "VEC3"
    }
  ],
  "bufferViews": [
    {
      "buffer": 0,
      "byteLength": 1212,
      "byteOffset": 0,
      "target": 34962
    },
    {
      "buffer": 0,
      "byteLength": 808,
      "byteOffset": 1212,
      "target": 34962
    },
    {
      "buffer": 0,
      "byteLength": 808,
      "byteOffset": 2020,
      "target": 34962
    },
    {
      "buffer": 0,
      "byteLength": 1212,
      "byteOffset": 2828,
      "target": 34962
    },
    {
      "buffer": 0,
      "byteLength": 648,
      "byteOffset": 4040,
      "target": 34963
    },
    {
      "buffer": 0,
      "byteLength": 170799,
      "byteOffset": 4688
    },
    {
      "buffer": 0,
      "byteLength": 2544,
      "byteOffset": 175488,
      "target": 34962
    },
    {
      "buffer": 0,
      "byteLength": 1696,
      "byteOffset": 178032,
      "target": 34962
    },
    {
      "buffer": 0,
      "byteLength": 2544,
      "byteOffset": 179728,
      "target": 34962
    },
    {
      "buffer": 0,
      "byteLength": 1224,
      "byteOffset": 182272,
      "target": 34963
    },
    {
      "buffer": 0,
      "byteLength": 1248,
      "byteOffset": 183496,
      "target": 34962
    },
    {
      "buffer": 0,
      "byteLength": 832,
      "byteOffset": 184744,
      "target": 34962
    },
    {
      "buffer": 0,
      "byteLength": 1248,
      "byteOffset": 185576,
      "target": 34962
    },
    {
      "buffer": 0,
      "byteLength": 528,
      "byteOffset": 186824,
      "target": 34963
    },
    {
      "buffer": 0,
      "byteLength": 960,
      "byteOffset": 187352,
      "target": 34962
    },
    {
      "buffer": 0,
      "byteLength": 640,
      "byteOffset": 188312,
      "target": 34962
    },
    {
      "buffer": 0,
      "byteLength": 960,
      "byteOffset": 188952,
      "target": 34962
    },
    {
      "buffer": 0,
      "byteLength": 408,
      "byteOffset": 189912,
      "target": 34963
    },
    {
      "buffer": 0,
      "byteLength": 1536,
      "byteOffset": 190320,
      "target": 34962
    },
    {
      "buffer": 0,
      "byteLength": 1024,
      "byteOffset": 191856,
      "target": 34962
    },
    {
      "buffer": 0,
      "byteLength": 1024,
      "byteOffset": 192880,
      "target": 34962
    },
    {
      "buffer": 0,
      "byteLength": 1536,
      "byteOffset": 193904,
      "target": 34962
    },
    {
      "buffer": 0,
      "byteLength": 1044,
      "byteOffset": 195440,
      "target": 34963
    },
    {
      "buffer": 0,
      "byteLength": 660,
      "byteOffset": 196484,
      "target": 34962
    },
    {
      "buffer": 0,
      "byteLength": 440,
      "byteOffset": 197144,
      "target": 34962
    },
    {
      "buffer": 0,
      "byteLength": 440,
      "byteOffset": 197584,
      "target": 34962
    },
    {
      "buffer": 0,
      "byteLength": 660,
      "byteOffset": 198024,
      "target": 34962
    },
    {
      "buffer": 0,
      "byteLength": 480,
      "byteOffset": 198684,
      "target": 34963
    },
    {
      "buffer": 0,
      "byteLength": 285927,
      "byteOffset": 199164
    },
    {
      "buffer": 0,
      "byteLength": 48,
      "byteOffset": 485092,
      "target": 34962
    },
    {
      "buffer": 0,
      "byteLength": 32,
      "byteOffset": 485140,
      "target": 34962
    },
    {
      "buffer": 0,
      "byteLength": 48,
      "byteOffset": 485172,
      "target": 34962
    },
    {
      "buffer": 0,
      "byteLength": 12,
      "byteOffset": 485220,
      "target": 34963
    },
    {
      "buffer": 0,
      "byteLength": 79260,
      "byteOffset": 485232
    },
    {
      "buffer": 0,
      "byteLength": 960,
      "byteOffset": 564492,
      "target": 34962
    },
    {
      "buffer": 0,
      "byteLength": 640,
      "byteOffset": 565452,
      "target": 34962
    },
    {
      "buffer": 0,
      "byteLength": 960,
      "byteOffset": 566092,
      "target": 34962
    }
  ],
  "samplers": [
    {
      "magFilter": 9729,
      "minFilter": 9987
    }
  ],
  "buffers": [
    {
      "byteLength": 567052,
      "uri": "data:application/octet-stream;base64,"
    }
  ]
}
